<svg width="200" height="200" viewBox="0 0 200 200" xmlns="http://www.w3.org/2000/svg">
  <!-- Chat Bubbles -->
  <path d="M60,100 Q60,75 75,60 Q90,45 115,45 Q140,45 155,60 Q170,75 170,100 Q170,125 155,140 Q140,155 115,155 Q90,155 75,140 Q60,125 60,100 Z" fill="#5A9BD5" stroke="#000080" stroke-width="4"/>
  <path d="M140,100 Q140,75 125,60 Q110,45 85,45 Q60,45 45,60 Q30,75 30,100 Q30,125 45,140 Q60,155 85,155 Q110,155 125,140 Q140,125 140,100 Z" fill="#ff69b4" stroke="#000080" stroke-width="4"/>

  <!-- Male Symbol -->
  <circle cx="100" cy="70" r="15" fill="#ffffff" stroke="#000080" stroke-width="4"/>
  <line x1="105" y1="65" x2="115" y2="55" stroke="#000080" stroke-width="4"/>
  <line x1="115" y1="55" x2="110" y2="50" stroke="#000080" stroke-width="4"/>
  <line x1="115" y1="55" x2="120" y2="60" stroke="#000080" stroke-width="4"/>

  <!-- Female Symbol -->
  <circle cx="100" cy="130" r="15" fill="#ffffff" stroke="#000080" stroke-width="4"/>
  <line x1="100" y1="145" x2="100" y2="160" stroke="#000080" stroke-width="4"/>
  <line x1="90" y1="155" x2="110" y2="155" stroke="#000080" stroke-width="4"/>

  <!-- Decorative Elements -->
  <circle cx="30" cy="30" r="5" fill="#5A9BD5"/>
  <circle cx="170" cy="30" r="5" fill="#ff69b4"/>
  <circle cx="30" cy="170" r="5" fill="#5A9BD5"/>
  <circle cx="170" cy="170" r="5" fill="#ff69b4"/>
</svg>
